<svg xmlns="http://www.w3.org/2000/svg" width="900" height="1200" viewBox="0 0 900 1200" role="img" aria-labelledby="title desc">
  <title id="title">Keep Going greeting card artwork</title>
  <desc id="desc">Cool blue encouragement card with layered hills, a rising path, and sun marks.</desc>
  <defs>
    <linearGradient id="sky" x1="0" x2="0" y1="0" y2="1">
      <stop offset="0" stop-color="#e8f0ef"/>
      <stop offset="0.56" stop-color="#b9cbd0"/>
      <stop offset="1" stop-color="#78929d"/>
    </linearGradient>
    <filter id="softShadow" x="-20%" y="-20%" width="140%" height="140%">
      <feDropShadow dx="0" dy="16" stdDeviation="18" flood-color="#445963" flood-opacity=".18"/>
    </filter>
  </defs>
  <rect width="900" height="1200" fill="#f3f0e9"/>
  <rect x="80" y="72" width="740" height="1036" rx="10" fill="url(#sky)" filter="url(#softShadow)"/>
  <rect x="126" y="120" width="648" height="940" fill="none" stroke="#f9fbf8" stroke-width="4" opacity=".72"/>
  <circle cx="690" cy="240" r="70" fill="#f9d47d" opacity=".9"/>
  <g fill="none" stroke-linecap="round">
    <path d="M128 832c137-164 238-207 351-178 88 23 155 13 293-109" stroke="#f8f6ee" stroke-width="78" opacity=".72"/>
    <path d="M92 895c145-184 274-254 407-221 97 24 165-10 320-152" stroke="#57747d" stroke-width="18" opacity=".55"/>
    <path d="M88 958c104-88 199-128 285-120 108 11 184 95 356 65" stroke="#2f5964" stroke-width="24" opacity=".42"/>
  </g>
  <g stroke="#fff8ec" stroke-width="6" opacity=".75">
    <path d="M690 118v70"/><path d="M690 292v70"/><path d="M516 240h70"/><path d="M794 240h70"/>
    <path d="m574 124 48 48"/><path d="m758 308 48 48"/><path d="m806 124-48 48"/><path d="m622 308-48 48"/>
  </g>
  <text x="450" y="412" text-anchor="middle" fill="#49636c" font-family="Arial, sans-serif" font-size="28" font-weight="800" letter-spacing="12">AWO</text>
  <text x="450" y="520" text-anchor="middle" fill="#252525" font-family="Arial, sans-serif" font-size="76" font-weight="900">Keep</text>
  <text x="450" y="610" text-anchor="middle" fill="#252525" font-family="Arial, sans-serif" font-size="76" font-weight="900">Going</text>
</svg>
